<svg width="381" height="82" viewBox="0 0 381 82" fill="none" xmlns="http://www.w3.org/2000/svg">
<path d="M156.974 61.5638C155.075 61.5638 153.572 61.0113 152.467 59.9062C151.362 58.8012 150.81 57.2988 150.81 55.3992V21.1181C151.294 21.0311 152.07 20.907 153.132 20.7518C154.193 20.5966 155.211 20.5159 156.18 20.5159C157.148 20.5159 158.092 20.5966 158.868 20.7518C159.638 20.907 160.296 21.1801 160.823 21.5837C161.357 21.981 161.755 22.5335 162.015 23.2412C162.282 23.9489 162.413 24.8802 162.413 26.0287V52.2206H177.598C177.908 52.7048 178.194 53.3567 178.461 54.1762C178.728 54.9956 178.858 55.8461 178.858 56.7277C178.858 58.497 178.479 59.7448 177.728 60.4712C176.977 61.1975 175.984 61.5638 174.742 61.5638H156.974Z" fill="#2E2E82"/>
<path d="M195.496 61.3031C195.012 61.39 194.291 61.5141 193.342 61.6693C192.392 61.8245 191.43 61.899 190.455 61.899C189.48 61.899 188.611 61.8307 187.835 61.7004C187.059 61.57 186.407 61.3031 185.879 60.9057C185.346 60.5084 184.942 59.9683 184.65 59.2792C184.365 58.5963 184.222 57.7024 184.222 56.5911V29.6045C184.706 29.5176 185.426 29.3934 186.376 29.2382C187.326 29.083 188.288 29.0085 189.263 29.0085C190.238 29.0085 191.107 29.0768 191.883 29.2072C192.653 29.3376 193.311 29.6045 193.838 30.0018C194.366 30.3992 194.776 30.9393 195.067 31.6284C195.353 32.3175 195.496 33.2114 195.496 34.3165V61.3031Z" fill="#2E2E82"/>
<path d="M217.441 28.1455C220.092 28.1455 222.557 28.487 224.835 29.1761C227.114 29.8589 229.069 30.9081 230.702 32.3236C232.335 33.739 233.62 35.5145 234.545 37.6625C235.476 39.8043 235.935 42.362 235.935 45.3233C235.935 48.2846 235.538 50.625 234.743 52.7482C233.949 54.8714 232.819 56.6531 231.36 58.0871C229.901 59.5212 228.144 60.5952 226.089 61.3029C224.034 62.0107 221.744 62.3645 219.229 62.3645C217.33 62.3645 215.56 62.079 213.921 61.5016V72.5086C213.481 72.6389 212.773 72.7817 211.798 72.9369C210.824 73.0921 209.83 73.1728 208.812 73.1728C207.794 73.1728 206.968 73.1045 206.192 72.9742C205.416 72.8438 204.764 72.5768 204.237 72.1795C203.703 71.7822 203.306 71.2421 203.045 70.553C202.778 69.8701 202.647 68.9699 202.647 67.8649V36.036C202.647 34.844 202.902 33.8694 203.411 33.1182C203.92 32.367 204.615 31.6841 205.497 31.0633C206.869 30.1818 208.57 29.474 210.6 28.9401C212.63 28.4125 214.908 28.1455 217.429 28.1455H217.441ZM217.572 53.4745C222.122 53.4745 224.401 50.7554 224.401 45.3171C224.401 42.4862 223.836 40.3879 222.712 39.0159C221.582 37.6439 219.962 36.961 217.839 36.961C217.001 36.961 216.249 37.0603 215.585 37.259C214.921 37.4577 214.35 37.6936 213.859 37.9543V52.5433C214.393 52.8103 214.964 53.0276 215.585 53.2076C216.206 53.3814 216.864 53.4745 217.572 53.4745Z" fill="#2E2E82"/>
<path d="M252.983 61.3031C252.498 61.39 251.778 61.5141 250.828 61.6693C249.879 61.8245 248.916 61.899 247.942 61.899C246.967 61.899 246.098 61.8307 245.322 61.7004C244.546 61.57 243.894 61.3031 243.366 60.9057C242.832 60.5084 242.429 59.9683 242.137 59.2792C241.852 58.5963 241.709 57.7024 241.709 56.5911V29.6045C242.193 29.5176 242.913 29.3934 243.863 29.2382C244.813 29.083 245.775 29.0085 246.75 29.0085C247.724 29.0085 248.594 29.0768 249.37 29.2072C250.139 29.3376 250.797 29.6045 251.325 30.0018C251.853 30.3992 252.263 30.9393 252.554 31.6284C252.84 32.3175 252.983 33.2114 252.983 34.3165V61.3031Z" fill="#2E2E82"/>
<path d="M275.859 28.1456C278.38 28.1456 280.665 28.4684 282.719 29.1078C284.774 29.7473 286.513 30.5791 287.922 31.5973C288.803 32.2181 289.505 32.901 290.008 33.6522C290.517 34.4033 290.771 35.378 290.771 36.57V59.7758C290.771 62.1163 290.331 64.1401 289.443 65.8411C288.555 67.5421 287.357 68.9576 285.83 70.0875C284.302 71.2111 282.515 72.043 280.46 72.5707C278.405 73.0984 276.207 73.3653 273.86 73.3653C269.838 73.3653 266.678 72.8252 264.381 71.7388C262.084 70.6524 260.935 68.8955 260.935 66.4681C260.935 65.45 261.146 64.556 261.568 63.78C261.991 63.004 262.462 62.4205 262.996 62.0232C264.275 62.7309 265.728 63.3268 267.342 63.8111C268.956 64.2953 270.626 64.5374 272.346 64.5374C274.73 64.5374 276.635 64.1401 278.051 63.3455C279.466 62.5508 280.174 61.2658 280.174 59.4965V58.4349C278.361 59.2295 276.151 59.6268 273.544 59.6268C271.557 59.6268 269.664 59.3288 267.876 58.7329C266.088 58.1369 264.517 57.2057 263.17 55.9454C261.823 54.6852 260.737 53.0587 259.923 51.0721C259.104 49.0855 258.694 46.7202 258.694 43.9762C258.694 41.2322 259.122 38.9352 259.985 36.9487C260.848 34.9621 262.04 33.3107 263.567 32.007C265.095 30.7033 266.907 29.7286 269.006 29.0892C271.104 28.4498 273.395 28.127 275.866 28.127L275.859 28.1456ZM279.969 37.7619C279.659 37.5881 279.206 37.4081 278.61 37.2342C278.014 37.0604 277.275 36.9673 276.387 36.9673C274.221 36.9673 272.594 37.5757 271.514 38.7925C270.427 40.0092 269.887 41.7413 269.887 43.9948C269.887 46.5588 270.427 48.4026 271.514 49.5325C272.594 50.6623 273.978 51.2211 275.661 51.2211C277.474 51.2211 278.908 50.7989 279.969 49.9608V37.7619Z" fill="#2E2E82"/>
<path d="M311.004 28.1455C313.387 28.1455 315.567 28.3876 317.534 28.8781C319.502 29.3623 321.185 30.1073 322.575 31.1006C323.966 32.0939 325.04 33.3541 325.791 34.8813C326.542 36.4085 326.921 38.2088 326.921 40.2885V55.1445C326.921 56.293 326.598 57.2304 325.959 57.963C325.319 58.6893 324.556 59.3226 323.674 59.8503C320.8 61.5761 316.752 62.4328 311.537 62.4328C309.197 62.4328 307.08 62.2093 305.205 61.7686C303.324 61.3278 301.71 60.6635 300.363 59.782C299.016 58.9004 297.979 57.7705 297.246 56.3985C296.52 55.0266 296.154 53.4373 296.154 51.6245C296.154 48.5763 297.06 46.2297 298.873 44.597C300.686 42.9642 303.492 41.9461 307.297 41.5488L315.982 40.6176V40.152C315.982 38.8731 315.418 37.9543 314.294 37.4018C313.17 36.8493 311.544 36.5699 309.421 36.5699C307.738 36.5699 306.105 36.7499 304.516 37.0976C302.927 37.4514 301.487 37.8922 300.208 38.4261C299.63 38.0288 299.146 37.4204 298.749 36.6009C298.351 35.7815 298.153 34.931 298.153 34.0494C298.153 32.9009 298.426 31.9821 298.985 31.2992C299.537 30.6163 300.388 30.0266 301.536 29.5423C302.815 29.0581 304.33 28.7042 306.081 28.4807C307.825 28.2573 309.47 28.1517 311.022 28.1517L311.004 28.1455ZM311.531 54.2071C312.282 54.2071 313.108 54.1326 314.021 53.9712C314.927 53.816 315.598 53.6049 316.045 53.3442V48.0362L311.271 48.4336C310.035 48.5205 309.017 48.7874 308.222 49.2282C307.428 49.669 307.03 50.3332 307.03 51.2148C307.03 52.0963 307.372 52.8165 308.061 53.369C308.744 53.9215 309.905 54.2009 311.544 54.2009L311.531 54.2071Z" fill="#2E2E82"/>
<path d="M360.997 51.755C360.997 55.1135 359.737 57.7458 357.217 59.6455C354.696 61.5451 350.984 62.495 346.079 62.495C344.223 62.495 342.497 62.3646 340.908 62.0976C339.319 61.8307 337.959 61.421 336.829 60.8684C335.706 60.3159 334.818 59.6206 334.178 58.7825C333.539 57.9444 333.216 56.9449 333.216 55.7964C333.216 54.7348 333.44 53.8409 333.88 53.1083C334.321 52.382 334.855 51.7736 335.47 51.2831C336.755 51.9909 338.22 52.6241 339.877 53.1766C341.535 53.7291 343.447 54.0023 345.614 54.0023C346.986 54.0023 348.035 53.8036 348.761 53.4063C349.488 53.009 349.854 52.4751 349.854 51.817C349.854 51.1962 349.587 50.712 349.059 50.3581C348.525 50.0043 347.644 49.7187 346.408 49.4952L344.422 49.0979C340.573 48.3467 337.711 47.1672 335.836 45.5531C333.955 43.939 333.017 41.6296 333.017 38.6248C333.017 36.9921 333.371 35.5084 334.079 34.1798C334.787 32.8513 335.78 31.7463 337.065 30.8647C338.344 29.9832 339.884 29.2941 341.672 28.8098C343.459 28.3256 345.44 28.0835 347.606 28.0835C349.239 28.0835 350.779 28.2077 352.213 28.4498C353.647 28.6919 354.901 29.0582 355.956 29.5424C357.018 30.0266 357.856 30.6599 358.477 31.4297C359.098 32.2057 359.408 33.1183 359.408 34.1798C359.408 35.2414 359.222 36.0671 358.843 36.7997C358.471 37.526 357.993 38.1344 357.415 38.6248C357.061 38.4013 356.528 38.1716 355.826 37.9295C355.118 37.6874 354.342 37.4639 353.504 37.2653C352.666 37.0666 351.816 36.899 350.953 36.7686C350.09 36.6382 349.308 36.57 348.6 36.57C347.141 36.57 346.017 36.7376 345.216 37.0666C344.422 37.3956 344.024 37.9171 344.024 38.6248C344.024 39.1153 344.248 39.5126 344.689 39.8168C345.129 40.1272 345.968 40.4128 347.209 40.6797L349.264 41.1453C353.51 42.12 356.528 43.4547 358.315 45.1558C360.103 46.8568 361.004 49.0606 361.004 51.755H360.997Z" fill="#2E2E82"/>
<path d="M372.457 57.7519C372.457 59.8006 370.849 61.4023 368.764 61.4023C366.678 61.4023 365.045 59.7944 365.045 57.7519C365.045 55.7095 366.696 54.145 368.764 54.145C370.831 54.145 372.457 55.7529 372.457 57.7519ZM365.97 57.7519C365.97 59.3598 367.156 60.6325 368.788 60.6325C370.421 60.6325 371.539 59.3598 371.539 57.7705C371.539 56.1813 370.371 54.8652 368.77 54.8652C367.168 54.8652 365.976 56.1626 365.976 57.7457L365.97 57.7519ZM368.192 59.6454H367.354V56.0385C367.683 55.9702 368.149 55.9267 368.739 55.9267C369.422 55.9267 369.726 56.0385 369.993 56.1875C370.191 56.3427 370.347 56.6283 370.347 56.9821C370.347 57.3794 370.036 57.6836 369.602 57.8202V57.8637C369.956 57.994 370.154 58.261 370.26 58.7452C370.371 59.2977 370.434 59.515 370.52 59.6454H369.62C369.509 59.515 369.446 59.186 369.335 58.7638C369.266 58.3665 369.049 58.1927 368.59 58.1927H368.192V59.6454ZM368.217 57.5967H368.615C369.074 57.5967 369.453 57.4415 369.453 57.069C369.453 56.74 369.211 56.5165 368.683 56.5165C368.466 56.5165 368.31 56.5413 368.223 56.56V57.5967H368.217Z" fill="#2E2E82"/>
<path d="M71.4456 81.8952C70.862 81.8952 70.1295 81.889 69.341 81.8518C67.9753 81.7959 66.2556 81.6283 65.9204 81.5972C50.0152 80.0204 35.0972 71.925 23.9102 58.8011C20.5516 54.8652 17.6835 50.7616 15.3865 46.6146C8.45204 34.0805 7.09247 21.7015 11.6616 12.6563C15.1133 5.82123 21.8181 1.43211 30.5466 0.289817C30.6025 0.283609 30.9998 0.233943 31.3785 0.196695C31.7014 0.159446 32.018 0.134614 32.0987 0.128405C44.0368 -0.840057 58.241 3.67323 74.3386 13.5503C88.9152 22.49 104.858 35.7815 121.731 53.0524L123.072 54.4244L121.893 55.9392C121.067 57.0008 120.198 58.0313 119.533 58.8073C107.124 73.3591 90.5293 81.5538 72.8051 81.8828H72.6996C72.4761 81.889 72.0291 81.9014 71.4394 81.9014L71.4456 81.8952Z" fill="#FCDB00"/>
<path d="M129.299 9.46548C123.035 1.05972 111.407 -1.93259 97.3954 1.25838C88.2446 3.33809 79.8451 7.30506 72.9976 12.7496C73.4445 13.0165 73.8915 13.2772 74.3447 13.5504C88.9213 22.4901 104.864 35.7816 121.737 53.0525L123.053 54.3997C124.754 52.084 126.282 49.756 127.592 47.4404C135.569 33.3046 136.221 18.7528 129.299 9.47168V9.46548Z" fill="url(#paint0_linear_289_2297)"/>
<path d="M123.078 54.4244V54.4181C123.078 54.4181 123.078 54.3995 123.072 54.3809C123.072 54.3809 123.06 54.3933 123.06 54.3995L122.78 54.1139L121.75 53.0586C104.876 35.7876 88.9339 22.4961 74.3573 13.5565C73.9041 13.2771 73.4633 13.0226 73.0101 12.7556C72.6128 13.0722 72.2155 13.395 71.8306 13.7179C71.8306 13.7179 71.8181 13.7303 71.8119 13.7365C71.8057 13.7365 71.7995 13.7489 71.7933 13.7551C68.5899 16.5674 65.697 19.7708 63.3814 23.4273C58.5452 30.7405 56.7263 41.2446 62.9964 48.3777C68.8383 55.0948 77.8276 57.1683 86.2023 57.7891C97.7432 58.5279 109.284 57.0628 120.589 54.9148C121.408 54.7596 122.228 54.5982 123.047 54.4368C123.06 54.4368 123.072 54.4368 123.085 54.4306H123.091L123.078 54.4244Z" fill="url(#paint1_linear_289_2297)"/>
<defs>
<linearGradient id="paint0_linear_289_2297" x1="72.9976" y1="27.202" x2="134.067" y2="27.202" gradientUnits="userSpaceOnUse">
<stop stop-color="#1AA3DE"/>
<stop offset="0.15" stop-color="#1B9BD8"/>
<stop offset="0.37" stop-color="#1E87C8"/>
<stop offset="0.64" stop-color="#2465AD"/>
<stop offset="0.94" stop-color="#2C3789"/>
<stop offset="1" stop-color="#2E2E82"/>
</linearGradient>
<linearGradient id="paint1_linear_289_2297" x1="58.9674" y1="35.3593" x2="123.078" y2="35.3593" gradientUnits="userSpaceOnUse">
<stop stop-color="#D5CD06"/>
<stop offset="0.12" stop-color="#C2C40E"/>
<stop offset="0.37" stop-color="#90B025"/>
<stop offset="0.72" stop-color="#428E4A"/>
<stop offset="1" stop-color="#007369"/>
</linearGradient>
</defs>
</svg>
